<svg width="16" height="16" viewBox="0 0 16 16" fill="none" xmlns="http://www.w3.org/2000/svg">
<path fill-rule="evenodd" clip-rule="evenodd" d="M8 10.1211L13.303 15.4251C13.5844 15.7065 13.966 15.8646 14.364 15.8646C14.762 15.8646 15.1436 15.7065 15.425 15.4251C15.7064 15.1437 15.8645 14.7621 15.8645 14.3641C15.8645 13.9662 15.7064 13.5845 15.425 13.3031L10.12 8.00011L15.424 2.69711C15.5633 2.55778 15.6737 2.39238 15.7491 2.21036C15.8244 2.02834 15.8632 1.83326 15.8631 1.63626C15.8631 1.43926 15.8242 1.2442 15.7488 1.06221C15.6734 0.880224 15.5628 0.714877 15.4235 0.57561C15.2842 0.436343 15.1188 0.325884 14.9367 0.250538C14.7547 0.175193 14.5596 0.136437 14.3626 0.136483C14.1656 0.13653 13.9706 0.175377 13.7886 0.250809C13.6066 0.32624 13.4413 0.436778 13.302 0.57611L8 5.87911L2.697 0.57611C2.5587 0.432781 2.39323 0.318431 2.21027 0.239733C2.0273 0.161034 1.83049 0.119563 1.63132 0.117739C1.43215 0.115915 1.23462 0.153774 1.05024 0.229109C0.865859 0.304443 0.698329 0.415744 0.557424 0.556516C0.416519 0.697288 0.305061 0.864713 0.229553 1.04902C0.154045 1.23333 0.115999 1.43083 0.117635 1.63C0.119271 1.82917 0.160556 2.02602 0.239082 2.20906C0.317608 2.3921 0.431802 2.55767 0.575001 2.69611L5.88 8.00011L0.576001 13.3031C0.294607 13.5845 0.13652 13.9662 0.13652 14.3641C0.13652 14.7621 0.294607 15.1437 0.576001 15.4251C0.857396 15.7065 1.23905 15.8646 1.637 15.8646C2.03495 15.8646 2.41661 15.7065 2.698 15.4251L8 10.1201V10.1211Z" fill="white"/>
</svg>
